{"title":"The.Karate.Kid.2010.480p.BRRip.H264.FEEL-FREE","uid":5771784,"size":1431191096,"categoryP":"video","categoryS":"movies","magnet":"?xt=urn:btih:55d3f52a600a7c9d8773c8b2db4c261bda472f66&amp;dn=The.Karate.Kid.2010.480p.BRRip.H264.FEEL-FREE&amp;tr=udp%3A%2F%2Ftracker.openbittorrent.com%3A80&amp;tr=udp%3A%2F%2Fopen.demonii.com%3A1337&amp;tr=udp%3A%2F%2Ftracker.coppersurfer.tk%3A6969&amp;tr=udp%3A%2F%2Fexodus.desync.com%3A6969","seeders":0,"leechers":0,"uploader":"hiest","files":-1,"time":1282092627,"description":"Genre:Action/Drama/Family/Sport\nLanguage:English\nIMDb:http://www.imdb.com/title/tt1155076/\nSource:720p.BluRay.x264.DTS-WiKi\nSubtitles: ROMANA\n.............................................\nGeneral\nComplete name : The.Karate.Kid.2010.480p.BRRip.H264.FEEL-FREE\nFormat : MPEG-4\nFormat profile : Base Media\nCodec ID : isom\nFile size : 1.33 GiB\nDuration : 2h 12mn\nOverall bit rate : 1 439 Kbps\n.............................................\n\nVideo\nID : 1\nFormat : MPEG-4 Visual\nFormat profile : Simple@L1\nFormat settings, BVOP : No\nFormat settings, QPel : No\nFormat settings, GMC : No warppoints\nFormat settings, Matrix : Default (H.263)\nCodec ID : 20\nDuration : 2h 12mn\nBit rate mode : Variable\nBit rate : 1 199 Kbps\nWidth : 688 pixels\nHeight : 288 pixels\nDisplay aspect ratio : 2.35:1\nFrame rate mode : Constant\nFrame rate : 29.970 fps\nResolution : 24 bits\nColorimetry : 4:2:0\nScan type : Progressive\nBits/(Pixel*Frame) : 0.202\nStream size : 1.11 GiB (83%)\n................................................\n\nAudio\nID : 2\nFormat : AAC\nFormat/Info : Advanced Audio Codec\nFormat version : Version 4\nFormat profile : LC\nFormat settings, SBR : No\nCodec ID : 40\nDuration : 2h 12mn\nBit rate mode : Variable\nBit rate : 235 Kbps\nChannel(s) : 6 channels\nChannel positions : Front: L C R, Rear: L R, LFE\nSampling rate : 48.0 KHz\nResolution : 16 bits\nStream size : 223 MiB (16%)\n.................................................\nPlot:\nWork causes a single mother to move to China with her young son; in his new home, the boy embraces kung fu, taught to him by a master\n...................................................\nScreenshots:\n &lt;a href=&quot;\nhttp://www.starshare.ro/bitbucket/vlcsnap-2010-08-18-13h17m28s131.jpg&quot; rel=&quot;nofollow&quot; target=&quot;_NEW&quot;&gt;\nhttp://www.starshare.ro/bitbucket/vlcsnap-2010-08-18-13h17m28s131.jpg&lt;/a&gt;\n &lt;a href=&quot;\nhttp://www.starshare.ro/bitbucket/vlcsnap-2010-08-18-13h25m51s27.jpg&quot; rel=&quot;nofollow&quot; target=&quot;_NEW&quot;&gt;\nhttp://www.starshare.ro/bitbucket/vlcsnap-2010-08-18-13h25m51s27.jpg&lt;/a&gt;\n &lt;a href=&quot;\nhttp://www.starshare.ro/bitbucket/vlcsnap-2010-08-18-13h25m45s225.jpg&quot; rel=&quot;nofollow&quot; target=&quot;_NEW&quot;&gt;\nhttp://www.starshare.ro/bitbucket/vlcsnap-2010-08-18-13h25m45s225.jpg&lt;/a&gt;\n &lt;a href=&quot;\nhttp://www.starshare.ro/bitbucket/vlcsnap-2010-08-18-13h17m37s213.jpg&quot; rel=&quot;nofollow&quot; target=&quot;_NEW&quot;&gt;\nhttp://www.starshare.ro/bitbucket/vlcsnap-2010-08-18-13h17m37s213.jpg&lt;/a&gt;\n\n.....................................................","torrent":{"xt":"urn:btih:55d3f52a600a7c9d8773c8b2db4c261bda472f66","amp;dn":"The.Karate.Kid.2010.480p.BRRip.H264.FEEL-FREE","amp;tr":["udp%3A%2F%2Ftracker.openbittorrent.com%3A80","udp%3A%2F%2Fopen.demonii.com%3A1337","udp%3A%2F%2Ftracker.coppersurfer.tk%3A6969","udp%3A%2F%2Fexodus.desync.com%3A6969"],"infoHash":"55d3f52a600a7c9d8773c8b2db4c261bda472f66","infoHashBuffer":{"type":"Buffer","data":[85,211,245,42,96,10,124,157,135,115,200,178,219,76,38,27,218,71,47,102]},"announce":[],"urlList":[]}}